<svg width="2992.354" height="938.419" viewBox="0 0 791.727 248.29" xml:space="preserve" xmlns="http://www.w3.org/2000/svg"><g transform="translate(-112.136 -161.605)"><path style="fill:none;fill-opacity:1;stroke:#000;stroke-width:7.23527;stroke-dasharray:none;stroke-opacity:1" d="M115.754 165.223h784.492v241.055H115.754z"/><path d="M-9.382-34.984h-11.442a1 1 0 0 1-1-1v-3h-3.116a1 1 0 0 1-1-1v-4.172l-3.447-1.718a1 1 0 0 1-.385-1.45l3.832-5.75v-1.7c.001-6.074 4.926-10.997 11-10.997s10.999 4.923 11 10.997c-.247 10.874-4.205 9.19-4.37 13.305l-.072 5.485a.997.997 0 0 1-1 1m-10.442-2h9.442l.112-5.683c-.103-2.601 4.578-3.221 4.33-12.01-.14-4.968-4.03-9.095-9-9.095a9 9 0 0 0-9 8.998v2c0 .198-.059.39-.168.555l-3.372 5.057 2.987 1.493a1 1 0 0 1 .553.895v3.79h3.116a1 1 0 0 1 1 1z" style="fill:#000;fill-opacity:1;stroke:none;stroke-width:1.24722;stroke-dasharray:none;stroke-opacity:1" transform="translate(290.546 463.524)scale(3.5728)"/><circle style="fill:none;fill-opacity:1;stroke:#000;stroke-width:8.27768;stroke-dasharray:none;stroke-opacity:1" cx="236.368" cy="286.077" r="78.626"/><path style="font-weight:700;font-size:75.2748px;line-height:0;font-family:&quot;Liberation Sans&quot;;-inkscape-font-specification:&quot;Liberation Sans Bold&quot;;letter-spacing:.0156823px;word-spacing:.00784119px;stroke-width:1.99172" d="M411.23 270.398v-22.2h-22.568v22.2H377.82V218.61h10.842v20.62h22.568v-20.62h10.843v51.788zm42.505.735q-10.696 0-16.393-5.219-5.66-5.22-5.66-14.923v-32.38h10.843v31.535q0 6.138 2.903 9.336 2.94 3.16 8.6 3.16 5.808 0 8.932-3.307 3.125-3.345 3.125-9.556V218.61h10.842v31.83q0 9.85-6.1 15.29-6.066 5.403-17.092 5.403m75.842-.735v-33.521q.036-1.065.367-9.152-2.61 9.888-3.859 13.784l-9.336 28.89h-7.718l-9.336-28.89-3.933-13.784q.44 8.528.44 11.284v31.39h-9.629V218.61h14.518l9.263 28.963.808 2.794 1.765 6.946 2.315-8.306 9.52-30.397h14.445v51.788zm56.324 0-4.594-13.232h-19.738l-4.594 13.232h-10.843l18.892-51.788h12.791l18.819 51.788zm-14.481-43.812-.22.809q-.368 1.323-.883 3.014-.514 1.69-6.322 18.598h14.886l-5.109-14.886-1.58-4.999zm63.786 43.812-22.568-39.88q.662 5.808.662 9.337v30.543h-9.63V218.61h12.386l22.899 40.21q-.662-5.55-.662-10.107V218.61h9.63v51.788zm86.782 0v-33.521q.036-1.065.367-9.152-2.61 9.888-3.86 13.784l-9.335 28.89h-7.719l-9.335-28.89-3.933-13.784q.44 8.528.44 11.284v31.39h-9.629V218.61h14.518l9.263 28.963.808 2.794 1.764 6.946 2.316-8.306 9.52-30.397h14.445v51.788zm56.324 0-4.594-13.232H753.98l-4.594 13.232h-10.843l18.892-51.788h12.791l18.819 51.788zm-14.481-43.812-.22.809q-.368 1.323-.883 3.014-.514 1.69-6.322 18.598h14.886l-5.109-14.886-1.58-4.999zm78.415 17.532q0 8.013-3.161 14.004-3.125 5.954-8.895 9.115-5.734 3.161-13.159 3.161h-20.95V218.61h18.745q13.085 0 20.252 6.616 7.168 6.58 7.168 18.892m-10.917 0q0-8.343-4.337-12.717-4.337-4.41-12.386-4.41h-7.682v35.027h9.189q6.983 0 11.1-4.815 4.116-4.815 4.116-13.085m19.129 26.28V218.61h40.724v8.38H861.3v13.012h27.64v8.38H861.3v13.636h31.39v8.38z" transform="scale(.94892 1.05383)" aria-label="HUMAN MADE"/><path style="font-weight:700;font-size:41.7027px;line-height:0;font-family:&quot;Liberation Sans&quot;;-inkscape-font-specification:&quot;Liberation Sans Bold&quot;;letter-spacing:.00868811px;word-spacing:.00434407px;stroke-width:1.10342" d="M389.375 337.224v-12.3h-12.503v12.3h-6.007v-28.691h6.007v11.423h12.503v-11.423h6.007v28.69zm23.548.407q-5.926 0-9.082-2.891-3.136-2.892-3.136-8.268v-17.94h6.007v17.472q0 3.4 1.609 5.172 1.629 1.751 4.765 1.751 3.217 0 4.948-1.832 1.73-1.853 1.73-5.295v-17.267h6.008v17.634q0 5.457-3.38 8.47-3.36 2.994-9.469 2.994m42.017-.407v-18.57q.02-.591.203-5.071-1.445 5.477-2.138 7.636l-5.172 16.005h-4.276l-5.172-16.005-2.179-7.636q.245 4.724.245 6.251v17.39h-5.335v-28.691h8.043l5.131 16.046.448 1.547.978 3.849 1.282-4.602 5.274-16.84h8.003v28.69zm31.204 0-2.545-7.33h-10.935l-2.545 7.33h-6.007l10.466-28.691h7.086l10.426 28.69zm-8.023-24.272-.122.448q-.204.733-.489 1.67t-3.502 10.303h8.247l-2.83-8.247-.876-2.77zm35.338 24.272-12.503-22.094q.367 3.218.367 5.173v16.92h-5.335v-28.69h6.862l12.686 22.277q-.366-3.075-.366-5.6v-16.677h5.335v28.69zm36.478 0v-18.57q.02-.591.204-5.071-1.446 5.477-2.138 7.636l-5.172 16.005h-4.276l-5.173-16.005-2.178-7.636q.244 4.724.244 6.251v17.39h-5.335v-28.691h8.043l5.132 16.046.448 1.547.977 3.849 1.283-4.602 5.274-16.84h8.002v28.69zm31.205 0-2.546-7.33h-10.935l-2.545 7.33h-6.007l10.467-28.691h7.086l10.425 28.69zm-8.023-24.272-.123.448q-.203.733-.488 1.67t-3.503 10.303h8.247l-2.83-8.247-.876-2.77zm43.442 9.713q0 4.439-1.751 7.758-1.731 3.299-4.928 5.05-3.177 1.75-7.29 1.75h-11.607v-28.69h10.385q7.25 0 11.22 3.665 3.97 3.645 3.97 10.467m-6.048 0q0-4.623-2.403-7.046-2.402-2.443-6.862-2.443h-4.256v19.405h5.091q3.869 0 6.15-2.667 2.28-2.668 2.28-7.25m10.597 14.559v-28.691h22.562v4.643h-16.555v7.208h15.313v4.643h-15.313v7.554h17.39v4.643zm51.649 0v-18.57q.02-.591.203-5.071-1.445 5.477-2.138 7.636l-5.172 16.005h-4.276l-5.172-16.005-2.179-7.636q.245 4.724.245 6.251v17.39h-5.336v-28.691h8.044l5.131 16.046.448 1.547.978 3.849 1.282-4.602 5.274-16.84h8.003v28.69zm31.204 0-2.545-7.33h-10.935l-2.545 7.33h-6.007l10.466-28.691h7.086l10.426 28.69zm-8.023-24.272-.122.448q-.204.733-.489 1.67t-3.502 10.303h8.247l-2.83-8.247-.876-2.77zm37.578 24.272-6.659-10.894h-7.045v10.894h-6.007v-28.691h14.335q5.132 0 7.921 2.22 2.79 2.199 2.79 6.332 0 3.014-1.71 5.213-1.711 2.179-4.623 2.871l7.758 12.055zm-.713-19.894q0-4.134-5.294-4.134h-7.697v8.47h7.86q2.525 0 3.828-1.14t1.303-3.196m30.98 19.894-10.303-13.175-3.543 2.708v10.467h-6.007v-28.691h6.007v13.012l12.93-13.012h7.005l-12.258 12.136 13.256 16.555zm10.313 0v-6.21h5.885v6.21zm24.953-4.317q5.436 0 7.554-5.457l5.233 1.975q-1.69 4.154-4.968 6.19-3.258 2.016-7.82 2.016-6.923 0-10.71-3.91-3.767-3.93-3.767-10.975 0-7.066 3.645-10.853t10.568-3.788q5.05 0 8.226 2.037 3.177 2.015 4.46 5.945l-5.294 1.446q-.672-2.158-2.648-3.42-1.954-1.284-4.622-1.284-4.072 0-6.19 2.525-2.097 2.525-2.097 7.392 0 4.948 2.158 7.555 2.179 2.606 6.272 2.606m44.623-10.161q0 4.48-1.772 7.88-1.771 3.4-5.07 5.213-3.299 1.792-7.697 1.792-6.76 0-10.609-3.97-3.828-3.992-3.828-10.915 0-6.903 3.828-10.772t10.65-3.869 10.65 3.91q3.848 3.91 3.848 10.731m-6.13 0q0-4.643-2.198-7.27-2.2-2.647-6.17-2.647-4.032 0-6.231 2.627-2.2 2.607-2.2 7.29 0 4.724 2.24 7.453 2.26 2.708 6.15 2.708 4.032 0 6.21-2.647 2.2-2.647 2.2-7.514m34.504 14.478v-18.57q.02-.591.203-5.071-1.445 5.477-2.138 7.636l-5.172 16.005h-4.276l-5.172-16.005-2.179-7.636q.244 4.724.244 6.251v17.39h-5.335v-28.691h8.044l5.131 16.046.448 1.547.977 3.849 1.283-4.602 5.274-16.84h8.003v28.69z" transform="scale(.96547 1.03576)" aria-label="HUMANMADEMARK.COM"/><path style="fill:#000;fill-opacity:1;stroke:#000;stroke-width:8.78767;stroke-dasharray:none;stroke-opacity:1" d="M343.637 302.426h518.337"/><path d="M23.346 35.391v-7.46c.046 0 .091.008.137.008 3.778-.005 6.593-3.485 5.81-7.18a.92.92 0 0 0-.705-.705 5.93 5.93 0 0 0-6.999 4.386q-.012-.015-.025-.028a5.93 5.93 0 0 0-5.437-1.613.92.92 0 0 0-.704.704c-.784 3.695 2.03 7.175 5.808 7.18.091 0 .19-.01.285-.015v4.723zm1.098-12.43a4.12 4.12 0 0 1 3.141-1.201 4.12 4.12 0 0 1-4.341 4.342 4.1 4.1 0 0 1 1.2-3.141m-6.113 4.685a4.1 4.1 0 0 1-1.206-3.142 4.117 4.117 0 0 1 4.342 4.343 4.1 4.1 0 0 1-3.137-1.201z" style="stroke-width:.914835" transform="translate(155.648 182.047)scale(3.61033)"/></g></svg>