<svg width="2979.943" height="934.527" viewBox="0 0 788.443 247.26" xml:space="preserve" xmlns="http://www.w3.org/2000/svg"><g transform="translate(-1136.137 -158.29)"><path style="fill:none;fill-opacity:1;stroke:#fff;stroke-width:7.20523;stroke-dasharray:none;stroke-opacity:1" d="M1139.74 161.893h781.238v240.055H1139.74z"/><path d="M-9.382-34.984h-11.442a1 1 0 0 1-1-1v-3h-3.116a1 1 0 0 1-1-1v-4.172l-3.447-1.718a1 1 0 0 1-.385-1.45l3.832-5.75v-1.7c.001-6.074 4.926-10.997 11-10.997s10.999 4.923 11 10.997c-.247 10.874-4.205 9.19-4.37 13.305l-.072 5.485a.997.997 0 0 1-1 1m-10.442-2h9.442l.112-5.683c-.103-2.601 4.578-3.221 4.33-12.01-.14-4.968-4.03-9.095-9-9.095a9 9 0 0 0-9 8.998v2c0 .198-.059.39-.168.555l-3.372 5.057 2.987 1.493a1 1 0 0 1 .553.895v3.79h3.116a1 1 0 0 1 1 1z" style="fill:#fff;fill-opacity:1;stroke:none;stroke-width:1.24722;stroke-dasharray:none;stroke-opacity:1" transform="translate(1313.806 458.955)scale(3.55798)"/><circle style="fill:none;fill-opacity:1;stroke:#fff;stroke-width:8.24336;stroke-dasharray:none;stroke-opacity:1" cx="1259.853" cy="282.246" r="78.299"/><path style="font-weight:700;font-size:74.9624px;line-height:0;font-family:&quot;Liberation Sans&quot;;-inkscape-font-specification:&quot;Liberation Sans Bold&quot;;letter-spacing:.0156172px;word-spacing:.00780868px;fill:#fff;stroke-width:1.98346" d="M1489.137 266.767V244.66h-22.474v22.108h-10.798v-51.573h10.798v20.534h22.474v-20.534h10.798v51.573zm42.328.732q-10.651 0-16.325-5.197-5.637-5.198-5.637-14.86v-32.248h10.798v31.405q0 6.113 2.892 9.297 2.928 3.148 8.565 3.148 5.783 0 8.895-3.294 3.11-3.331 3.11-9.517v-31.039h10.799v31.698q0 9.81-6.076 15.227-6.04 5.38-17.02 5.38m75.527-.732v-33.381q.037-1.062.366-9.114-2.598 9.846-3.843 13.726l-9.297 28.77h-7.687l-9.297-28.77-3.916-13.726q.439 8.491.439 11.237v31.258h-9.59v-51.573h14.458l9.224 28.843.805 2.782 1.757 6.918 2.306-8.272 9.48-30.271h14.385v51.573zm56.091 0-4.575-13.177h-19.656l-4.575 13.177h-10.798l18.814-51.573h12.738l18.74 51.573zm-14.421-43.63-.22.805q-.366 1.318-.878 3.002-.513 1.683-6.296 18.52h14.824l-5.088-14.824-1.574-4.978zm63.521 43.63-22.474-39.714q.659 5.784.659 9.297v30.417h-9.59v-51.573h12.335l22.804 40.043q-.66-5.527-.66-10.065v-29.978h9.59v51.573zm86.422 0v-33.381q.037-1.062.366-9.114-2.6 9.846-3.844 13.726l-9.297 28.77h-7.686l-9.297-28.77-3.917-13.726q.44 8.491.44 11.237v31.258h-9.59v-51.573h14.458l9.223 28.843.806 2.782 1.757 6.918 2.306-8.272 9.48-30.271h14.385v51.573zm56.09 0-4.575-13.177h-19.655l-4.576 13.177h-10.797l18.813-51.573h12.738l18.74 51.573zm-14.42-43.63-.22.805q-.367 1.318-.879 3.002t-6.296 18.52h14.824l-5.087-14.824-1.574-4.978zm78.088 17.46q0 7.979-3.147 13.945-3.112 5.93-8.858 9.077-5.71 3.148-13.104 3.148h-20.864v-51.573h18.668q13.03 0 20.168 6.589 7.137 6.551 7.137 18.813m-10.87 0q0-8.31-4.32-12.665-4.319-4.393-12.335-4.393h-7.65v34.883h9.15q6.955 0 11.055-4.795t4.1-13.03m19.048 26.17v-51.573h40.556v8.345h-29.758v12.958h27.526v8.345h-27.526v13.58h31.259v8.345z" transform="scale(.94892 1.05383)" aria-label="HUMAN MADE"/><path style="font-weight:700;font-size:41.5294px;line-height:0;font-family:&quot;Liberation Sans&quot;;-inkscape-font-specification:&quot;Liberation Sans Bold&quot;;letter-spacing:.00865206px;word-spacing:.00432606px;fill:#fff;stroke-width:1.09884" d="M1448.86 333.272v-12.248h-12.45v12.248h-5.982V304.7h5.982v11.376h12.45V304.7h5.982v28.572zm23.45.406q-5.9 0-9.044-2.88-3.122-2.88-3.122-8.233V304.7h5.982v17.4q0 3.386 1.602 5.15 1.622 1.744 4.745 1.744 3.204 0 4.927-1.825 1.724-1.845 1.724-5.272V304.7h5.982v17.561q0 5.435-3.366 8.436-3.346 2.98-9.43 2.98m41.843-.406v-18.494q.02-.588.202-5.049-1.44 5.455-2.129 7.605l-5.15 15.938h-4.259l-5.15-15.938-2.17-7.605q.243 4.705.243 6.226v17.317h-5.313V304.7h8.01l5.11 15.98.446 1.54.974 3.833 1.277-4.583 5.252-16.77h7.97v28.572zm31.074 0-2.535-7.3h-10.889l-2.535 7.3h-5.982l10.423-28.572h7.057l10.382 28.572zm-7.99-24.171-.121.446q-.203.73-.487 1.663-.284.932-3.487 10.26h8.212l-2.818-8.212-.872-2.758zm35.192 24.171-12.451-22.002q.365 3.204.365 5.151v16.851h-5.313V304.7h6.834l12.633 22.184q-.365-3.062-.365-5.576V304.7h5.313v28.572zm36.326 0v-18.494q.02-.588.203-5.049-1.44 5.455-2.13 7.605l-5.15 15.938h-4.258l-5.15-15.938-2.17-7.605q.243 4.705.243 6.226v17.317h-5.313V304.7h8.01l5.11 15.98.446 1.54.973 3.833 1.278-4.583 5.252-16.77h7.97v28.572zm31.075 0-2.535-7.3h-10.89l-2.534 7.3h-5.982l10.423-28.572h7.057l10.382 28.572zm-7.99-24.171-.121.446q-.203.73-.487 1.663-.284.932-3.488 10.26h8.213l-2.819-8.212-.872-2.758zm43.262 9.672q0 4.42-1.744 7.726-1.723 3.285-4.907 5.03-3.163 1.743-7.26 1.743h-11.558V304.7h10.342q7.219 0 11.173 3.65 3.954 3.63 3.954 10.423m-6.022 0q0-4.603-2.393-7.016-2.393-2.433-6.834-2.433h-4.238v19.325h5.07q3.852 0 6.123-2.657t2.272-7.219m10.553 14.499V304.7h22.468v4.624h-16.486v7.178h15.249v4.623h-15.25v7.524h17.318v4.623zm51.433 0v-18.494q.02-.588.203-5.049-1.44 5.455-2.129 7.605l-5.15 15.938h-4.259l-5.15-15.938-2.17-7.605q.243 4.705.243 6.226v17.317h-5.313V304.7h8.01l5.11 15.98.446 1.54.974 3.833 1.277-4.583 5.252-16.77h7.97v28.572zm31.075 0-2.535-7.3h-10.89l-2.534 7.3h-5.982l10.423-28.572h7.057l10.382 28.572zm-7.99-24.171-.121.446q-.203.73-.487 1.663-.284.932-3.488 10.26h8.213l-2.819-8.212-.872-2.758zm37.422 24.171-6.63-10.849h-7.017v10.849h-5.982V304.7h14.276q5.11 0 7.888 2.21 2.778 2.19 2.778 6.307 0 3.001-1.703 5.191-1.704 2.17-4.604 2.86l7.726 12.004zm-.71-19.812q0-4.116-5.272-4.116h-7.665v8.436h7.827q2.515 0 3.813-1.136 1.297-1.136 1.297-3.184m30.852 19.812-10.26-13.12-3.53 2.697v10.423h-5.981V304.7h5.982v12.958l12.876-12.958h6.976l-12.207 12.086 13.2 16.486zm10.27 0v-6.185h5.86v6.185zm24.848-4.299q5.415 0 7.524-5.434l5.211 1.967q-1.683 4.136-4.948 6.164-3.244 2.008-7.787 2.008-6.894 0-10.666-3.894-3.751-3.913-3.751-10.93 0-7.036 3.63-10.808t10.524-3.772q5.029 0 8.192 2.028 3.164 2.008 4.441 5.921l-5.272 1.44q-.67-2.15-2.636-3.407-1.947-1.277-4.603-1.277-4.056 0-6.165 2.514-2.089 2.515-2.089 7.361 0 4.928 2.15 7.523 2.17 2.596 6.245 2.596m44.438-10.119q0 4.462-1.764 7.848t-5.05 5.191q-3.284 1.785-7.664 1.785-6.733 0-10.565-3.955-3.812-3.974-3.812-10.869 0-6.874 3.812-10.727t10.605-3.853 10.606 3.894q3.832 3.893 3.832 10.686m-6.103 0q0-4.623-2.19-7.239-2.19-2.636-6.145-2.636-4.015 0-6.205 2.616-2.19 2.595-2.19 7.26 0 4.704 2.23 7.421 2.252 2.697 6.125 2.697 4.015 0 6.185-2.636 2.19-2.636 2.19-7.483m34.36 14.418v-18.494q.02-.588.202-5.049-1.44 5.455-2.13 7.605l-5.15 15.938h-4.258l-5.15-15.938-2.17-7.605q.243 4.705.243 6.226v17.317h-5.313V304.7h8.01l5.11 15.98.446 1.54.973 3.833 1.278-4.583 5.252-16.77h7.969v28.572z" transform="scale(.96547 1.03576)" aria-label="HUMANMADEMARK.COM"/><path style="fill:#000;fill-opacity:1;stroke:#fff;stroke-width:8.75123;stroke-dasharray:none;stroke-opacity:1" d="M1366.677 298.527h516.188"/><g style="fill:#fff;fill-opacity:1;stroke:none;stroke-opacity:1"><path d="M23.346 35.391v-7.46c.046 0 .091.008.137.008 3.778-.005 6.593-3.485 5.81-7.18a.92.92 0 0 0-.705-.705 5.93 5.93 0 0 0-6.999 4.386q-.012-.015-.025-.028a5.93 5.93 0 0 0-5.437-1.613.92.92 0 0 0-.704.704c-.784 3.695 2.03 7.175 5.808 7.18.091 0 .19-.01.285-.015v4.723zm1.098-12.43a4.12 4.12 0 0 1 3.141-1.201 4.12 4.12 0 0 1-4.341 4.342 4.1 4.1 0 0 1 1.2-3.141m-6.113 4.685a4.1 4.1 0 0 1-1.206-3.142 4.117 4.117 0 0 1 4.342 4.343 4.1 4.1 0 0 1-3.137-1.201z" style="fill:#fff;fill-opacity:1;stroke:none;stroke-width:.914835;stroke-opacity:1" transform="translate(1179.468 178.648)scale(3.59535)"/></g></g></svg>