<?xml version="1.0" standalone="no"?>
<svg viewBox="-350 -150 1500 1500" style="width: 585px; height: 585px; justify-content: center; align-self: center; transform: scale(1, 1);" xmlns="http://www.w3.org/2000/svg"><rect x="-350" y="-150" width="100%" height="100%" fill="#f0f0f0" rx="30"></rect><g transform="rotate(360 410.5864505767822 582.6887570467952)"><g transform="translate(0 459)"><path d="M748.281 585.022C744.25 562.258 740.555 539.434 737.197 516.56C735.603 505.7 734.049 494.83 732.65 483.942C731.671 476.314 730.18 467.591 735.37 461.942C742.673 453.99 749.307 447.184 750.201 435.793C751.042 425.076 747.418 413.393 745.152 402.99C740.4 381.174 734.484 359.628 727.948 338.286C721.306 316.603 714.024 295.124 706.637 273.686C699.731 253.642 693.092 233.417 684.097 214.186C667.026 177.691 638.146 150.664 602.454 132.618C593.578 128.13 575.472 112.108 566.198 108.521C557.672 105.223 557.703 114.854 549.311 111.226C542.603 108.326 536.357 104.459 532.601 97.9817C528.523 90.9492 518.297 81.1132 516.74 72.9271C513.441 55.5756 517.014 40.8073 504.63 27.7476C493.637 16.1509 478.859 8.20616 463.569 3.94138C429.933 -5.44032 385.075 1.11856 364.781 32.3739C355.088 47.3001 351.701 65.3415 338.622 77.523C327.202 88.1594 329.757 95.4313 314.965 100.913C314.127 101.224 291.42 96.3534 290.582 96.6648C274.4 93.2021 258.934 102.895 244.087 108.521C221.954 116.905 200.883 127.819 181.085 140.79C141.166 166.945 106.976 200.908 78.7895 239.341C50.3695 278.091 28.3185 321.523 12.6175 366.917C8.8045 377.943 5.3795 389.103 2.3585 400.372C0.667503 406.679 -1.1395 413.221 0.919503 419.677C2.6035 424.96 6.3495 428.893 10.7485 432.062C16.7115 436.359 28.6725 439.152 28.4395 447.794C28.2615 454.364 26.0325 461.279 24.9445 467.772C23.6495 475.504 22.5855 483.282 21.5215 491.048C16.6815 526.398 12.9145 561.947 11.2485 597.597C9.6085 632.699 8.2475 668.518 10.6825 703.61C10.8435 705.924 11.5335 708.048 12.6465 709.843C11.6075 710.241 11.5275 712.178 12.8205 712.452C13.7265 712.644 14.6305 712.835 15.5365 713.028C17.4185 714.452 19.7655 715.325 22.4665 715.41C24.2975 715.468 26.1275 715.55 27.9565 715.644C47.2575 719.679 66.5555 723.49 86.1085 726.376C109.876 729.883 133.714 732.743 157.626 735.069C206.762 739.845 255.51 738.261 304.71 735.686C353.833 733.115 402.928 732.514 452.104 733.793C501.322 735.074 550.521 737.214 599.75 738.091C654.75 739.068 709.664 737.566 764.504 733.194C772.023 732.595 776.675 726.613 775.193 719.145C766.307 674.402 756.238 629.958 748.281 585.022Z" transform="translate(25.9997 -31.99965)" fill="#FFFFFF" stroke="none"></path><path d="M387.499 11.4142C390.401 2.82024 378.393 -3.89576 372.349 2.59424C368.625 6.5925 367.134 11.7389 365.35 16.7859L364.976 17.8282C363.504 21.8572 361.659 25.7562 359.605 29.5212C355.317 37.3812 349.885 44.6692 343.661 51.1022C330.891 64.2992 314.162 73.6282 297.126 80.2062C296.582 80.4162 296.353 80.8962 296.408 81.3372C295.593 80.2272 294.779 79.1172 293.969 78.0072C293.529 77.4062 292.433 77.7312 292.683 78.5492C307.284 126.366 348.611 165.008 395.354 181.324C443.676 198.192 499.563 190.729 537.318 154.758C556.111 136.853 569.596 112.78 573.128 86.9302C573.281 85.8062 573.244 84.7832 573.07 83.8542C589.682 97.8742 607.105 110.89 623.392 125.306C642.416 142.146 660.893 160.15 676.08 180.597C691.487 201.344 703.101 224.254 710.862 248.896C718.244 272.335 722.639 296.55 726.714 320.754L728.773 333.051C733.39 360.393 738.797 387.342 746.69 413.895C737.862 416.725 729.065 419.643 720.268 422.581L703.534 428.171C699.095 429.654 694.083 432.097 689.427 433.074C686.213 432.549 683.001 433.893 680.87 436.224C679.693 417.484 678.804 398.731 678.163 379.989C677.675 365.731 677.406 351.456 676.792 337.203C676.149 322.266 674.837 307.385 674 292.487C673.972 291.992 673.312 292.019 673.25 292.487C671.482 305.775 669.502 318.924 668.55 332.341C667.61 345.596 667.176 358.922 667.064 372.21C666.845 398.134 667.226 424.054 668.459 449.951C670.957 502.44 675.903 554.844 683.698 606.813C685.91 621.565 688.387 636.273 691.074 650.945C692.359 657.961 693.69 664.967 695.067 671.965C695.813 675.756 696.399 679.664 697.363 683.407C698.424 687.528 700.305 689.488 703.911 691.751C706.634 693.458 709.993 692.188 711.672 689.715C713.717 686.704 714.725 684.452 714.153 680.792C713.653 677.596 712.89 674.423 712.249 671.253C710.963 664.899 709.715 658.539 708.506 652.17C706.087 639.434 703.86 626.664 701.693 613.882C697.317 588.069 693.612 562.138 690.27 536.172C686.597 507.635 683.841 478.952 681.805 450.219C683.505 451.871 685.707 452.78 688.595 453.134C693.024 453.676 698.063 451.574 702.619 449.672C704.131 449.041 705.591 448.432 706.957 447.949L729.068 440.133L733.599 438.524C733.796 452.029 735.189 465.691 736.329 479.016L737.23 489.544C738.431 503.58 739.62 517.614 740.743 531.659C743.273 563.319 748.278 594.839 753.548 626.168L755.084 635.258C756.728 644.966 758.412 654.666 760.136 664.359C760.998 669.204 761.911 674.035 762.874 678.86C763.376 681.377 763.653 684.129 764.421 686.572C765.634 690.43 768.314 692.026 771.734 693.626L772.364 693.917C774.279 694.795 776.538 694.785 778.101 693.176C780 691.222 782.127 689.297 782.876 686.572C783.482 684.366 783.039 682.092 782.607 679.878C782.571 679.693 782.535 679.509 782.5 679.325L782.361 678.574C781.562 674.048 780.803 669.514 779.966 664.994C778.412 656.612 776.814 648.238 775.283 639.852C772.103 622.438 769.231 604.968 766.048 587.556C759.822 553.502 752.561 519.621 746.635 485.522C743.847 469.48 741.578 452.964 737.857 437.001C745.435 434.291 753.001 431.547 760.539 428.713C766.576 426.444 768.474 421.032 766.012 415.261C756.494 392.953 751.784 368.499 747.568 344.518L744.786 328.601C740.269 302.624 735.99 276.525 728.532 251.196C713.337 199.588 681.976 155.763 640.12 122.239C619.88 106.029 598.373 91.4176 575.021 80.2078L574.877 80.1399C573.354 79.4342 569.422 77.9608 566.075 77.8262C562.616 77.6872 559.081 79.9082 558.488 84.9492L558.476 85.0312L558.046 84.5732C555.701 82.1876 552.534 80.6843 549.918 78.6052C547.233 76.4712 544.746 74.0392 542.452 71.4942C538.165 66.7372 534.643 61.1932 531.705 55.5132C525.701 43.9051 523.856 31.5877 522.375 18.8544L522.083 16.3022C521.897 14.6672 519.711 13.7282 518.763 15.4032C511.081 28.9902 512.885 47.0492 518.511 61.0752C521.585 68.7392 525.779 75.5192 531.149 81.7982C536.113 87.6022 543.733 95.6972 551.43 97.3682C553.229 97.7592 554.868 97.5482 556.247 96.9302C546.627 134.346 513.917 163.705 476.789 173.126C429.599 185.101 380.729 168.267 344.836 137.056C327.219 121.738 312.603 103.256 298.749 84.5149L296.984 82.1212C297.105 82.1782 297.242 82.2182 297.4 82.2322C317.878 83.9632 336.893 75.8522 352.839 63.3622C369.803 50.0762 380.673 31.6332 387.499 11.4142ZM294.039 69.283C290.11 68.8407 286.143 68.3941 282.235 68.5639C277.201 68.7829 272.184 69.1039 267.174 69.6639C257.886 70.7039 248.234 73.2299 239.363 76.1339C220.384 82.3479 202.438 91.1369 185.598 101.841C151.152 123.735 121.762 152.927 96.8833 185.117C69.2443 220.878 46.6173 260.429 29.0873 302.061C20.3323 322.856 12.8513 344.171 6.80127 365.91C5.30927 371.271 3.89527 376.655 2.58227 382.063L2.46597 382.535C2.28315 383.268 2.08773 384.013 1.8899 384.768C0.638578 389.539 -0.708997 394.677 0.429273 399.431C1.61127 404.372 5.27327 407.72 9.51927 410.161C14.8713 413.238 20.5643 415.854 26.0703 418.642C29.1743 420.214 32.2903 421.779 35.4153 423.333C27.3894 448.456 23.4478 475.129 19.8575 501.21L17.9349 515.239C13.0099 551.581 9.2414 588.071 7.35527 624.707C6.81627 635.186 6.37327 645.67 6.02627 656.157C5.85327 661.4 5.70427 666.644 5.58027 671.889C5.56362 672.584 5.53772 673.28 5.51188 673.975C5.30647 679.496 5.10421 684.932 9.57027 689.045C13.3263 692.503 18.4523 692.328 22.2473 689.045C25.9836 685.812 26.4351 681.699 26.5475 677.258L26.6849 670.25C26.7509 667.191 26.8256 664.132 26.9083 661.073C27.1553 651.896 27.4773 642.722 27.8723 633.55C28.6763 614.888 29.5993 596.228 30.8673 577.591C33.3783 540.691 36.7333 503.919 40.5383 467.133C41.9013 453.951 43.3093 440.738 43.8923 427.501C84.1703 447.059 126.391 463.798 171.584 465.255C170.254 479.823 168.962 494.392 167.766 508.974C164.391 550.087 160.742 591.17 157.57 632.301C156.702 643.571 155.855 654.841 155.066 666.117C154.819 669.642 154.514 673.182 154.208 676.728C153.484 685.123 152.756 693.557 152.794 701.921C152.815 706.432 156.252 710.367 160.72 710.899C164.758 711.379 170.09 708.903 170.749 704.351C173.706 683.928 174.125 662.84 175.42 642.247C176.713 621.695 178.145 601.146 179.253 580.583C181.466 539.477 183.956 498.378 185.831 457.256C186.89 434.038 187.86 410.747 184.825 387.636C184.703 386.704 183.368 386.35 183.075 387.399C177.627 406.921 175.131 427.169 173.229 447.31L172.895 450.953C130.234 449.862 89.7267 434.102 51.8161 415.517L49.4983 414.376C48.0121 413.642 33.1923 406.104 24.2954 401.519L19.7343 399.154C18.3833 398.446 15.4753 397.605 14.7273 396.244C14.067 395.042 14.8618 392.431 15.411 390.627C15.5655 390.119 15.7005 389.675 15.7783 389.345C16.9843 384.212 18.2563 379.095 19.6083 373.998C25.1683 353.049 32.0323 332.447 40.1333 312.345C69.9633 238.324 117.233 166.83 182.545 119.609C199.506 107.346 217.935 96.6719 237.339 88.7639C247.075 84.7959 256.837 81.7269 266.894 78.7519L270.713 77.6218C279.631 74.9862 288.613 72.3909 297.693 70.4939C298.191 70.3899 298.023 69.7079 297.581 69.6649C296.406 69.5493 295.224 69.4164 294.039 69.283Z" transform="translate(19.00033 -4.999743)" fill="#000000" fill-rule="evenodd" stroke="none"></path></g><g transform="translate(225 0)"><g><g><path d="M333.415 93.2216C329.554 69.8624 342.226 65.0158 333.415 42.8109C313.833 1.66731 260.468 3.44007 221.308 0.276637C177.63 -1.39736 133.422 4.36885 93.1557 21.875C83.5377 26.056 74.2867 30.9732 65.4187 36.5599C57.7507 41.3913 58.8047 50.5773 63.6397 55.5884C28.7747 104.96 48.7157 171.232 20.8967 223.202C15.7577 232.491 8.96066 240.821 4.49366 250.487C-2.29634 265.18 -2.73134 286.233 12.6667 295.99C34.3537 307.631 46.4557 284.584 57.1117 317.993C110.33 434.483 217.329 441.044 318.905 380.31C327.693 375.422 336.662 369.897 343.298 362.217C358.361 345.266 356.587 321.428 356.92 300.259C357.106 287.854 357.137 275.447 357.016 263.039C356.542 212.781 339.885 143.065 333.415 93.2216Z" transform="translate(52 80)" fill="#FFFFFF" stroke="none"></path><path d="M328.858 2.05735C261.958 -4.86265 192.397 5.68736 131.067 33.5074C98.6176 48.2274 68.8166 68.4874 42.6976 92.7374C37.9276 91.3974 32.7076 91.1174 28.3676 91.8674C21.2676 93.0974 14.7676 97.1574 10.5076 102.957C4.02762 111.757 4.25762 122.977 9.17762 131.897C8.39662 132.526 7.67762 133.247 7.01762 134.026C1.82762 140.217 2.36762 148.207 6.17762 154.977C7.24342 156.875 9.16081 158.976 11.1901 161.199C15.3299 165.734 19.9355 170.779 18.7276 175.657C17.9176 178.967 14.9776 182.067 13.2676 184.977C11.1376 188.597 9.33762 192.377 7.73762 196.257C-4.71818 226.333 -0.00202393 258.647 7.02466 289.34L7.65708 292.088C9.04719 298.235 10.3267 305.444 12.6176 312.087C-4.37238 335.487 -0.292376 375.167 27.4976 388.417C34.3276 391.677 41.9276 393.517 49.5176 393.267C53.4776 393.127 57.6076 392.587 61.3576 391.287C63.2276 390.637 65.0776 389.807 66.5276 388.477C70.0076 406.887 77.9576 423.847 87.9476 439.797C93.5776 448.767 100.108 457.727 107.668 465.177C115.658 473.037 129.448 480.717 139.189 471.047C142.508 467.757 141.439 462.647 137.788 460.207C130.948 455.607 123.708 452.787 117.668 446.937C110.948 440.427 104.588 433.397 98.5876 426.227C90.0312 416.005 82.5119 404.857 75.1567 393.666L69.1576 384.517C69.171 384.487 69.1821 384.457 69.1921 384.427L69.2476 384.237C69.2636 384.143 69.2788 384.052 69.2933 383.963L69.4386 383.026C69.4725 382.954 69.5155 382.863 69.5663 382.753L69.8076 382.207C71.6466 378.677 69.3576 374.617 65.3576 374.446C64.0719 374.446 63.8943 374.407 64.8177 374.321L65.1976 374.287C63.8276 373.487 62.3476 373.087 60.7476 373.087C58.8776 373.087 57.0976 373.727 55.3076 374.167C52.6676 374.817 50.3166 375.276 47.5976 375.267C42.0176 375.247 36.6376 373.637 31.9276 370.667C21.0476 363.807 17.9076 349.097 19.6676 337.057C20.1676 333.647 20.9876 330.427 22.1576 327.427C23.6076 328.657 25.2276 329.707 27.0376 330.557C27.3076 330.687 27.5276 330.317 27.2776 330.147C25.5076 329.007 23.9876 327.647 22.6886 326.127C25.9476 318.507 31.4576 312.337 39.2876 308.007C44.2276 305.276 49.8076 303.977 55.2976 304.167C55.3166 304.327 55.3476 304.487 55.3776 304.647C55.9783 307.776 57.4624 309.353 59.6223 311.246L60.3966 311.917C63.3476 314.437 67.1276 314.207 69.5076 311.837L69.5666 311.917C70.3276 311.167 70.9776 310.467 71.5376 309.776C72.6466 310.607 73.6976 311.537 74.6886 312.567C75.0576 312.946 75.6776 312.457 75.4276 311.997C74.6466 310.587 73.7676 309.257 72.7876 308.026C74.0576 305.907 74.5476 303.667 74.5576 300.387C74.5642 297.003 74.4699 293.608 74.3758 290.218C74.3414 288.98 74.307 287.743 74.2776 286.507C74.0666 277.577 73.6076 268.647 73.2576 259.717C73.1717 257.481 72.9894 255.167 72.8046 252.821C72.3654 247.245 71.9123 241.493 72.7076 236.207C73.3663 231.834 76.0088 230.809 79.648 229.747L84.3783 228.38C95.5003 225.123 106.766 221.046 109.178 207.897C110.675 199.71 108.189 192.058 105.694 184.378C103.907 178.879 102.116 173.364 101.778 167.627C101.058 155.577 104.758 143.307 111.608 133.337C118.248 135.057 124.858 136.887 131.608 138.237C140.948 140.117 150.317 141.797 159.718 143.317C178.189 146.307 196.718 148.696 215.388 150.087C252.808 152.867 290.508 151.467 327.628 145.877C332.908 145.087 338.168 144.157 343.388 143.007C343.358 143.897 343.317 144.797 343.268 145.696C342.978 150.717 342.838 155.707 342.828 160.727C342.658 162.037 342.698 163.457 342.939 165.007L343.218 166.817C343.418 168.077 343.918 169.227 344.658 170.237C346.439 198.037 350.189 225.687 353.758 253.327L354.608 259.939C358.846 293 362.863 326.098 366.238 359.257C366.538 362.197 366.894 365.184 367.254 368.201C368.86 381.673 370.537 395.733 367.588 408.797C364.668 421.767 356.388 431.847 346.078 439.907C321.848 458.877 291.468 471.398 261.888 479.077C246.048 483.187 228.918 487.287 212.468 487.097C206.578 487.026 200.328 486.317 194.939 483.776C190.335 481.617 187.444 477.727 184.805 473.541L184.298 472.727C182.098 469.177 175.678 469.377 174.788 473.967C172.138 487.557 184.439 496.017 196.168 499.297C209.517 503.032 223.421 501.296 236.916 499.236L239.248 498.877C274.208 493.457 307.478 481.776 339.088 466.087C353.078 459.147 366.088 449.797 375.628 437.317C386.258 423.397 389.548 406.927 388.618 389.677C387.578 370.667 384.578 351.607 382.178 332.737L381.43 326.903C379.178 309.4 376.826 291.908 374.198 274.457C369.168 241.026 363.718 207.397 354.698 174.776C354.897 174.757 355.098 174.737 355.298 174.707C360.998 173.847 364.358 169.497 364.848 163.887L365.768 153.357L366.267 153.389C382.813 154.407 404.315 152.364 411.948 135.227C414.608 129.257 415.278 122.627 414.038 116.637C425.078 113.776 435.328 107.807 443.228 99.5574C447.328 95.2764 447.038 89.0874 443.228 84.7474C440.968 82.1574 438.558 79.8374 436.018 77.7574C443.228 75.1964 449.988 70.3974 453.748 63.7074C458.588 55.0974 456.689 44.5574 449.918 37.5874C444.1 31.5899 435.848 28.6654 428.193 25.719L425.475 24.6686C394.464 12.7839 361.878 5.46756 328.858 2.05735ZM54.9381 328.377C45.4381 327.567 37.7381 330.787 30.7671 336.937C30.0781 337.537 30.8371 338.477 31.5971 338.347C38.5071 337.127 46.6771 338.497 53.2781 340.627C60.6271 343.007 64.5781 348.007 70.4981 352.437C76.9981 357.297 86.0281 347.807 81.5971 341.337C75.9881 333.147 64.4881 329.196 54.9381 328.377Z" transform="translate(37.99998 0.0003450957)" fill="#000000" fill-rule="evenodd" stroke="none"></path></g></g><g transform="translate(159 186)"><g><path d="M175.373 49.5872C175.699 49.4437 175.991 49.2049 176.203 48.8583C178.978 44.3099 179.267 38.8813 178.039 33.5637C176.563 27.172 172.899 20.9588 168.944 16.7559C163.959 11.4582 157.895 7.75374 151.246 4.94731C150.762 4.74287 150.267 4.53098 149.763 4.31514C142.964 1.40541 134.597 -2.01031 127.865 1.47064C125.161 2.86951 123.673 5.20381 123.256 7.7496C122.814 10.4534 123.597 13.4099 125.462 15.7216C128.557 19.5594 133.339 20.3533 138.087 21.0465C139.602 21.2677 141.106 21.486 142.53 21.8229C147.429 22.9821 152.604 24.4361 157.104 26.7244C166.253 31.3762 170.54 38.5898 172.747 48.2853C172.837 48.6781 173.037 48.9988 173.3 49.2406C173.575 49.4928 173.921 49.6579 174.285 49.7192C174.651 49.7808 175.032 49.7375 175.373 49.5872ZM58.3942 19.1934C55.0693 22.4329 51.1339 22.9347 47.1526 23.381C44.9405 23.6313 43.1746 23.8331 41.4369 24.2252C36.6605 25.3034 31.9393 26.9272 27.6319 29.2659C23.1292 31.7106 18.2224 34.659 14.6922 38.4361C13.8528 39.3349 13.0615 40.278 12.2691 41.2232C11.5465 42.0851 10.8505 42.9149 10.1169 43.7149C9.27449 44.6339 8.47449 45.597 7.67875 46.5576C7.1867 47.3681 7.0895 47.5675 6.99041 47.775C6.8413 48.0869 6.66786 48.4359 6.46976 48.8103C6.19845 49.323 5.88066 49.8843 5.54784 50.3932C4.9941 51.3234 4.69697 51.5796 4.44022 51.6942C4.01419 51.8839 3.61015 51.9774 3.21817 51.9268C2.85064 51.8793 2.50438 51.7028 2.16244 51.4138C0.455387 49.9715 -0.0480658 47.6046 0.00353523 45.092C0.0818393 41.2793 1.48813 37.0578 2.78452 34.4628C5.79888 28.4331 9.97938 22.1649 15.0062 17.6646C20.7422 12.5276 27.0177 8.63869 34.2256 5.95894C38.705 4.29304 43.8913 2.76391 48.7713 2.95706C52.284 3.09609 55.6373 4.14026 58.4066 6.74782C60.1072 8.34853 60.9235 10.6254 60.9235 12.9006C60.9235 15.2211 60.0757 17.5554 58.3942 19.1934ZM164.634 78.3299C166.478 78.8824 167.779 78.6212 169.441 77.7551C170.719 77.0896 171.589 76.0387 172.088 74.8117C172.599 73.5559 172.706 72.1077 172.454 70.7659C171.405 65.1948 168.042 60.2513 163.503 57.0672C159.091 53.9728 153.589 52.5435 148.048 53.7341C144.003 54.6036 138.007 58.4424 134.85 63.1243C133.504 65.1203 132.671 67.2595 132.581 69.3723C132.495 71.387 133.008 73.4183 135.676 76.096C135.935 76.177 136.208 76.2208 136.477 76.2208C137.138 76.2208 137.821 75.9439 138.274 75.5441C139.469 74.4935 140.311 73.1636 141.178 71.7329C141.641 70.9679 142.102 70.1976 142.69 69.5195C144.449 67.4927 147.002 65.7736 149.683 65.3262C152.167 64.911 154.406 65.6469 156.181 67.0355C158.256 68.6601 159.713 71.1522 160.252 73.8146C160.472 74.8933 161.036 75.8657 161.818 76.6477C162.607 77.4367 163.615 78.0237 164.634 78.3299ZM46.1749 69.1109C43.7479 67.5587 40.8928 67.0259 37.7287 68.4655C35.256 69.5899 30.9192 73.3385 27.9011 78.2662C25.8363 81.6374 24.3721 85.5922 24.6769 89.7117C24.7477 90.6684 24.3942 91.3738 23.8366 91.8954C23.3962 92.3073 22.7601 92.61 22.013 92.7047C21.3786 92.785 20.6686 92.7125 20.0913 92.5324C18.9931 92.1896 18.4119 91.4772 18.1929 90.8957C16.0797 85.2836 16.9901 79.0208 19.3585 73.3707C22.5547 65.7456 28.3592 59.3585 32.1622 57.2993C38.6698 53.7742 46.347 53.612 52.8639 57.2031C58.4114 60.2596 61.8802 65.1942 65.3301 70.2242C66.0635 71.2934 66.7914 72.3548 67.5436 73.3976C69.0513 75.487 69.2013 77.5593 68.6175 79.3363C67.9707 81.3049 66.3215 82.9663 64.2592 83.8357C62.353 84.6393 60.1407 84.7524 58.1831 83.9268C56.5293 83.2293 55.0117 81.8695 54.0513 79.5625C52.434 75.6771 49.7393 71.3904 46.1749 69.1109ZM127.748 115.98C135.872 104.601 124.366 93.898 116.814 89.3079C114.836 87.8879 116.406 83.1842 120.634 83.9112C159.031 90.5082 139.136 156.649 90.112 120.354C84.2754 115.645 91.3434 105.275 97.6342 109.307C97.9532 109.552 98.2876 109.81 98.6364 110.08C105.704 115.544 118.636 125.542 127.748 115.98ZM117.042 185.1C109.675 187.233 101.768 187.424 94.2589 185.221C87.4481 183.222 80.4549 178.823 75.4423 173.003C70.9894 167.832 68.1055 161.549 68.2187 154.842C68.2316 154.076 68.5055 153.436 68.9268 152.94C69.3804 152.406 70.014 152.039 70.6926 151.88C71.3906 151.716 72.1285 151.774 72.7568 152.059C73.3256 152.318 73.8129 152.757 74.1176 153.398C74.8879 154.41 75.6553 155.407 76.4257 156.376C82.6196 164.024 88.618 169.74 97.9319 171.79C102.985 172.903 108.032 172.409 112.663 170.712C117.62 168.895 122.102 165.7 125.613 161.612C127.2 159.765 129.074 159.011 130.905 158.998C132.982 158.983 135.034 159.948 136.579 161.49C138.099 163.006 139.116 165.065 139.209 167.219C139.29 169.11 138.673 171.085 137.032 172.848C131.626 178.652 124.621 182.904 117.042 185.1Z" transform="translate(54.00004 55.05923)" fill="#000000" fill-rule="evenodd" stroke="none"></path></g></g><g transform="translate(123 338)"><g><path d="M268.388 67.08C270.922 71.4266 273.06 76.0406 274.758 80.8047C275.556 83.0421 281.542 107.261 277.755 121.138C274.111 134.497 267.519 147.166 259.18 158.287C251.52 168.499 241.863 176.987 229.899 181.682C214.289 187.81 195.674 186.087 179.386 184.505C159.043 182.523 139.049 177.998 119.705 171.451C110.028 168.188 100.531 164.424 91.173 160.35C81.9752 156.356 72.1982 152.421 63.5797 147.246C56.1695 142.791 49.8479 135.783 43.796 129.708C34.2586 120.137 24.931 110.156 16.692 99.4255C9.0022 89.4149 3.24985 80.144 1.30244 67.4804C-1.70965 47.8457 1.09105 27.2169 3.76515 7.52062C3.98141 5.92774 4.19685 4.34095 4.40831 2.76129C4.4882 2.10059 5.52682 1.75021 5.74653 2.43094C5.72656 2.06054 5.70658 1.69115 5.68661 1.32075C5.6167 -0.261938 7.92364 -0.471162 8.35307 0.959366C13.6061 18.3389 22.1847 34.1548 34.5183 47.5191C51.5017 65.9128 73.2059 78.6794 94.2819 91.9486C94.989 91.2819 95.8478 90.8083 96.7576 90.6282C99.8046 76.9215 109.88 64.1789 119.845 55.5076C149.016 30.1415 195.754 19.2389 231.876 34.7054C247.146 41.2524 260.009 52.7056 268.388 67.08ZM163.836 57.1894C143.492 62.2859 125.821 76.2258 117.725 95.193C117.113 99.3325 117.163 103.521 118.04 107.674C135.307 119.809 156.513 126.186 177.735 123.714C184.346 115.511 191.665 101.523 202.782 99.9091C211.011 98.7154 216.836 104.137 222.687 109.584C225.693 112.382 228.706 115.187 232.056 117.104C232.606 117.419 233.206 117.725 233.827 118.023C240.161 117.498 246.515 116.018 251.84 112.401C257.296 108.697 259.362 103.683 260.334 97.7918C260.056 96.6676 259.757 95.5494 259.439 94.4392C257.202 86.6309 254.017 79.0127 249.333 72.3566C245.398 66.7396 240.165 61.9545 233.744 59.4228C226.224 56.4597 217.665 55.828 209.686 55.0572C194.456 53.5756 178.777 53.4564 163.836 57.1894Z" fill="#000000" fill-rule="evenodd" stroke="none"></path></g></g><g transform="translate(47 241)"><g><path d="M355.09 63.4319C352.262 71.1279 347.958 79.1399 342.695 85.6169C321.401 103.649 300.71 93.6649 290.204 69.2259C286.212 51.9549 296.811 33.3509 308.042 20.6459C324.262 4.38889 350.733 12.9209 358.191 32.2469C358.644 34.7509 358.918 37.2489 359.049 39.7389C358.894 47.8299 357.919 54.7449 355.09 62.4319M150.41 47.9109C178.462 14.5439 230.942 12.7599 229.603 64.1149C223.577 129.119 122.106 113.164 150.41 47.9109ZM363.913 20.0759C362.93 18.4109 361.839 16.7999 360.648 15.2589C360.208 14.9969 359.955 12.6729 358.337 12.5009C336.71 -11.3581 298.717 2.17889 284.989 25.9529C282.482 28.9589 280.437 32.4779 278.929 36.1959C265.403 33.7149 249.634 34.1969 237.054 39.3059C224.58 6.73389 186.815 3.82589 161.928 17.7429C146.449 25.3559 136.412 41.2989 121.358 50.0569C85.9688 52.6039 47.9878 44.6749 13.2378 53.5519C-14.1682 59.2499 8.74178 73.1269 13.3378 63.8659C46.1008 54.1859 84.9158 62.3659 118.933 60.1849C122.47 66.1679 129.253 71.0639 136.013 70.8549C143.314 135.576 237.698 124.844 240.954 67.3109C244.647 61.4719 249.24 55.8839 255.814 52.2459C258.331 51.7249 260.762 51.0479 262.984 49.9999C266.782 49.4639 272.634 51.0739 276.128 54.2359C288.097 126.052 357.052 117.688 369.375 54.7739C369.62 54.5239 370.305 53.5859 370.831 52.0809C375.049 46.5039 385.375 44.4309 383.725 35.0159C382.256 25.5989 370.364 25.7109 363.913 20.0759Z" transform="translate(11.99972 10.99992)" fill="#000000" stroke="none"></path></g></g></g></g></svg>